<svg xmlns="http://www.w3.org/2000/svg" width="160px" height="160px" viewBox="0 0 160 160"><path d="M75.867.14C74.22.333 70.223 1.325 68.47 2c-8.77 3.34-15.281 10.23-17.5 18.516-.848 3.191-.992 4.437-.992 8.75.02 4.672.336 7.082 1.582 11.308 1.734 5.895 4.777 12.067 9.343 18.895 2.008 3 2.051 3.55.106 2.199-4.5-3.215-10.926-6.742-15.473-8.563-6.656-2.66-11.496-3.59-17.52-3.378-8.011.296-13.761 2.726-19.042 8.05-4.207 4.25-6.426 8.285-8.012 14.606C-.668 78.852-.223 85.172 2.27 91.87c1.968 5.2 5.199 9.555 9.554 12.828 3.637 2.727 7.59 4.399 12.153 5.117 2.539.422 7.714.465 10.25.106 3.53-.508 8.793-1.965 11.945-3.297.465-.191 2.535-1.207 4.605-2.242 3.762-1.903 5.875-3.149 10.25-6.149 1.29-.89 2.368-1.586 2.368-1.523 0 .062-.61.992-1.352 2.05-4.945 7.122-8.559 14.16-10.379 20.227-2.027 6.785-2.344 13.867-.863 19.719 2.047 8.031 7.437 14.457 15.238 18.137 2.45 1.16 6.043 2.324 8.707 2.851 2.516.489 7.906.508 10.567.024 4.039-.742 9.683-2.918 12.515-4.84 6-4.102 9.996-9.66 11.625-16.172 1.438-5.746 1.29-11.266-.426-18.113-1.605-6.32-5.386-13.992-10.691-21.64-.762-1.079-1.332-2.009-1.293-2.052.043-.043 1.777 1.055 3.848 2.45 10.144 6.742 18.496 10.02 27.582 10.78 4.101.337 8.879-.19 12.449-1.417 8.562-2.914 15.176-10.102 17.926-19.465 1.054-3.613 1.246-4.988 1.226-9.363 0-4.754-.34-6.723-1.797-10.926-2.18-6.195-5.37-10.484-10.78-14.48-2.388-1.754-6.868-3.614-10.356-4.29-6.575-1.27-10.758-.21-17.586 4.352-2.77 1.863-7.567 5.602-9.977 7.781-3.086 2.809-12.387 10.586-12.66 10.586-.106 0-.02-.21.148-.484 1.922-2.684 5.516-9.574 6.973-13.36 1.184-3.043 3.258-9.511 3.934-12.257 2.199-8.875 2.98-17.543 2.05-22.996C107.993 11.68 98.61 2.593 85.906.413 83.56.012 78.277-.133 75.867.141Zm0 0" style="stroke:none;fill-rule:nonzero;fill:#fff;fill-opacity:1"/></svg>