<svg xmlns="http://www.w3.org/2000/svg" width="160px" height="160px" viewBox="0 0 160 160"><path d="M22.129.172C11.703 1.863 3.113 9.766.609 20.023c-.734 2.993-.734 8.122 0 11.094.762 3.164 1.301 4.414 3.805 8.832 2.895 5.106 6.602 11.485 7.41 12.762.344.539.614 1.031.614 1.105 0 .047.44.832.98 1.715.543.887.984 1.645.984 1.696 0 .074.563 1.003 1.25 2.132 1.72 2.774 3.95 7.317 4.711 9.598 2.332 6.945 2.309 15.14-.047 22.11-.886 2.624-2.187 5.203-5.277 10.48C8.758 112.27 3.332 121.69 2.547 123.262-.176 128.687-.715 134.648.93 140.957c1.175 4.54 4.757 9.84 8.957 13.3 2.945 2.403 7.949 4.661 11.949 5.348 2.602.47 6.676.344 9.18-.27 2.156-.515 5.496-1.89 7.925-3.288 3.829-2.184 10.16-5.817 13.864-8 13.254-7.73 14.16-8.195 19.511-9.422 5.102-1.203 10.329-1.18 15.582.098 4.98 1.18 6.946 2.086 15.09 6.922a289.533 289.533 0 0 0 4.418 2.574c.614.344 3.535 2.039 6.504 3.754 2.969 1.746 6.235 3.632 7.238 4.222 2.137 1.227 6.11 2.82 8.223 3.29 2.133.464 7.926.417 9.988-.098 7.703-1.914 13.985-6.727 17.594-13.45a24.917 24.917 0 0 0 1.817-19.238c-.739-2.308-1.45-3.781-3.954-8.097-1.027-1.77-3.015-5.18-4.414-7.61-1.425-2.43-3.144-5.422-3.855-6.625-.688-1.226-1.914-3.312-2.7-4.664-2.28-3.898-2.722-4.758-3.656-7.113-1.617-4.102-2.355-8.102-2.355-12.64 0-7.141 1.668-12.54 6.355-20.466A717.207 717.207 0 0 0 149 51.238c1.598-2.773 4.172-7.191 5.695-9.816 4.368-7.535 5.106-9.79 5.078-15.95-.023-3.34-.097-4.394-.539-6.011-.66-2.43-2.894-6.945-4.464-9.008-5.204-6.848-13.278-10.797-21.352-10.43-4.957.223-8.465 1.352-13.742 4.442-1.692.98-4.832 2.824-6.992 4.074-6.528 3.777-10.184 5.89-13.008 7.582-5.153 3.02-9.692 4.809-14.332 5.57-3.067.493-9.64.368-12.414-.27-4.051-.905-8.125-2.6-12.395-5.151-2.773-1.668-5.789-3.41-13.25-7.73-2.625-1.524-5.695-3.313-6.797-3.977C35.234 1.445 31.36.194 26.426.074c-1.696-.05-3.61 0-4.297.098Zm0 0" style="stroke:none;fill-rule:nonzero;fill:#fff;fill-opacity:1"/></svg>