<svg xmlns="http://www.w3.org/2000/svg" width="160px" height="154px" viewBox="0 0 159 154"><path d="M76.547.047C70.414 1.28 65.984 3.516 61.875 7.484c-7.36 7.098-11.79 17.293-12.836 29.453-.137 1.645-.273 3.06-.316 3.149-.047.07-1.227-.156-2.614-.523-5.18-1.301-6.246-1.415-12.718-1.415-5.68 0-6.18.024-8.883.618-3.133.66-7.473 2.097-9.63 3.191C8.04 45.379 2.907 51.199 1 57.633c-.477 1.62-1 5.222-1 6.89 0 2.168.773 6.34 1.59 8.739 3.5 10.015 12.926 19.23 24.758 24.25 1.203.504 2.453 1.004 2.793 1.074.343.09.613.203.613.273 0 .067-.613 1.094-1.383 2.305-8.02 12.773-9.906 27.902-4.883 39.125 2.407 5.363 7.223 9.996 12.469 12.047 3.133 1.21 5.02 1.574 8.586 1.734 3.633.137 5.793-.066 9.289-.957 7.566-1.918 14.902-6.367 21.012-12.707 2.043-2.101 4.043-4.36 4.472-5.043.094-.16.368 0 .684.41 2.977 3.856 7.156 7.872 10.926 10.563 5.11 3.629 10.105 5.91 15.719 7.164 1.882.41 2.996.504 6.472.504 4.703.02 6.543-.32 10.153-1.781 5.996-2.465 11.175-8.145 13.335-14.625 1.293-3.832 1.59-5.977 1.59-11.18-.023-4.313-.093-5.11-.636-7.871a51.954 51.954 0 0 0-6.59-16.723c-.953-1.574-1.723-2.898-1.723-2.941 0-.07.793-.41 1.77-.754.953-.32 3.066-1.277 4.68-2.078 11.492-5.793 19.738-15.012 22.394-25.07 2.933-11.137-1.793-21.997-12.13-27.95-4.245-2.441-8.722-3.926-14.218-4.699-3.52-.504-11.289-.32-14.762.316-2.34.457-5.656 1.235-6.382 1.532-.32.113-.387-.16-.524-2.102-1.183-16.766-9.02-30.41-20.625-35.887C86.336.731 83.77.141 80.18.023 78.5-.02 76.864.003 76.548.047Zm0 0" style="stroke:none;fill-rule:nonzero;fill:#fff;fill-opacity:1"/></svg>