<svg xmlns="http://www.w3.org/2000/svg" width="160px" height="180px" viewBox="0 0 160 180"><path d="M76.617.293c-4.34 1.21-7.012 3.52-9.82 8.516a265.332 265.332 0 0 1-2.899 5.043c-.609 1.054-1.53 2.601-2.023 3.476-.496.852-1.418 2.465-2.066 3.586-.653 1.098-1.801 3.117-2.586 4.484a217.892 217.892 0 0 1-2.024 3.473c-.336.563-.922 1.57-1.3 2.242-1.192 2.219-2.563 4.575-3.329 5.762l-.761 1.164-19.485.07-19.508.067-1.46.515C3.198 40.887-.755 47.297.12 53.598c.317 2.218.875 3.789 2.18 6.05 1.37 2.399 3.347 5.786 4.246 7.332.406.672.945 1.59 1.168 2.016.922 1.613 4.879 8.453 5.531 9.527.379.606.965 1.66 1.3 2.286.54 1.03 1.485 2.625 3.306 5.671.246.426.785 1.415 1.191 2.153l.719 1.39-.473.895c-.27.516-.762 1.367-1.102 1.883-.335.539-.94 1.617-1.37 2.422a32.711 32.711 0 0 1-.942 1.683c-.18.2-4.227 7.149-5.574 9.524a165.59 165.59 0 0 1-1.617 2.804c-1.079 1.817-4.36 7.508-6.496 11.25-1.864 3.254-2.473 6.079-2.02 9.371.719 5.336 4.156 9.461 9.527 11.458 1.055.402 2.293.425 20.672.535l19.551.113 2.316 3.922c1.258 2.152 2.426 4.172 2.606 4.484.156.313.875 1.57 1.597 2.801.72 1.234 1.684 2.89 2.133 3.7.45.808 1.371 2.355 2.024 3.472a769.266 769.266 0 0 1 3.933 6.816c.38.649 1.301 2.266 2.09 3.563.762 1.324 1.528 2.625 1.684 2.894.629 1.098 2.472 2.98 3.91 3.965 3.055 2.063 6.766 2.805 10.629 2.063 4.515-.852 7.687-3.45 10.496-8.653a216.449 216.449 0 0 1 3.91-6.77c.742-1.21 1.324-2.241 1.324-2.308 0-.066.246-.492.516-.965.7-1.097 3.035-5.062 3.664-6.207 1.035-1.883 5.55-9.66 5.957-10.246.246-.312.426-.672.426-.781 0-.09.246-.563.562-1.031l.582-.832h18.989c13.351 0 19.304-.067 20.047-.246 2.132-.516 4.605-1.86 6.246-3.383 3.664-3.477 5.238-8.207 4.27-12.957-.384-1.864-1.571-4.395-3.438-7.332-.403-.649-.743-1.211-.743-1.278 0-.066-.492-.965-1.101-1.972-.606-1.032-1.281-2.22-1.527-2.645-.473-.828-2.942-5.11-7.618-13.113-1.574-2.711-3.37-5.828-3.976-6.926L140.3 90l.426-.805c.226-.449 1.058-1.882 1.82-3.207.789-1.324 1.418-2.445 1.418-2.535 0-.066.27-.535.605-1.074.336-.516 1.528-2.555 2.653-4.527a222.928 222.928 0 0 1 2.652-4.528c.336-.539.605-1.011.605-1.054 0-.067.676-1.254 1.485-2.645 3.101-5.27 3.64-6.21 5.347-9.191.965-1.704 1.954-3.723 2.18-4.485 1.953-6.254-.988-13.336-6.808-16.363-2.856-1.477-1.485-1.39-22.989-1.523l-19.527-.114-1.508-2.578c-.832-1.41-2.246-3.809-3.125-5.312-.875-1.524-2.18-3.786-2.898-5.043a429.322 429.322 0 0 0-2.606-4.551c-1.73-2.957-5.664-9.75-7.258-12.527-2.203-3.813-4.585-5.918-8.246-7.31-1.754-.651-6.113-.85-7.91-.335Zm0 0" style="stroke:none;fill-rule:nonzero;fill:#fff;fill-opacity:1"/></svg>