<svg xmlns="http://www.w3.org/2000/svg" width="160px" height="142px" viewBox="0 0 160 142"><path d="M36.75.242c-4.965.57-9.7 1.961-14.16 4.196C10.46 10.476 2.95 20.39.652 33.495-1.465 45.508 1.676 60.117 8.617 70.47c5.418 8.136 17.957 22.36 32.91 37.355 10.153 10.188 16.16 15.774 26.176 24.41 3.16 2.715 11.445 9.414 12.082 9.758.48.274 6.215-4.195 14.543-11.375 16.184-13.926 36.395-34.347 48.524-48.98.914-1.094 2.324-2.805 3.164-3.809 5.828-7.043 9.082-12.605 11.246-19.144 4.187-12.672 3.73-25.645-1.278-36.243-2.707-5.742-7.53-11.257-13.289-15.09-2.027-1.367-6.875-3.917-8.648-4.558-11.336-4.125-23.195-3.668-33.684 1.277-6.285 2.965-9.468 5.563-17.707 14.383l-2.64 2.848-.73-.797C72.39 12.824 69.09 9.68 65.472 7.238c-4.075-2.71-9.7-5.148-14.5-6.246-4.004-.91-10.016-1.23-14.223-.75Zm0 0" style="stroke:none;fill-rule:nonzero;fill:#fff;fill-opacity:1"/></svg>